<svg xmlns="http://www.w3.org/2000/svg" xmlns:xlink="http://www.w3.org/1999/xlink" width="500" zoomAndPan="magnify" viewBox="0 0 375 374.999991" height="500" preserveAspectRatio="xMidYMid meet" version="1.0"><defs><clipPath id="74e3ab6876"><path d="M 10.769531 35.625 L 364.359375 35.625 L 364.359375 339.375 L 10.769531 339.375 Z M 10.769531 35.625 " clip-rule="nonzero"/></clipPath><clipPath id="0cdd2198fb"><path d="M 364.230469 187.5 L 275.863281 339.375 L 99.136719 339.375 L 10.769531 187.5 L 99.136719 35.625 L 275.863281 35.625 Z M 364.230469 187.5 " clip-rule="nonzero"/></clipPath><clipPath id="1da6f2c3a0"><path d="M 10.769531 35.625 L 364.019531 35.625 L 364.019531 339.371094 L 10.769531 339.371094 Z M 10.769531 35.625 " clip-rule="nonzero"/></clipPath><clipPath id="35fc33c6a0"><path d="M 364.21875 187.5 L 275.859375 339.371094 L 99.132812 339.371094 L 10.769531 187.5 L 99.132812 35.625 L 275.859375 35.625 Z M 364.21875 187.5 " clip-rule="nonzero"/></clipPath><clipPath id="4f6e777da6"><path d="M 62.582031 102.328125 L 312.332031 102.328125 L 312.332031 272.578125 L 62.582031 272.578125 Z M 62.582031 102.328125 " clip-rule="nonzero"/></clipPath></defs><path stroke-linecap="butt" transform="matrix(0.45303, -0.597716, 0.597716, 0.45303, 99.171684, 327.253865)" fill="none" stroke-linejoin="miter" d="M -0.000189236 2.000263 L 82.775877 2.000261 " stroke="#ffffff" stroke-width="4" stroke-opacity="1" stroke-miterlimit="4"/><g clip-path="url(#74e3ab6876)"><g clip-path="url(#0cdd2198fb)"><path fill="#000000" d="M 10.769531 35.625 L 364.359375 35.625 L 364.359375 339.375 L 10.769531 339.375 Z M 10.769531 35.625 " fill-opacity="1" fill-rule="nonzero"/></g></g><g clip-path="url(#1da6f2c3a0)"><g clip-path="url(#35fc33c6a0)"><path stroke-linecap="butt" transform="matrix(0.75, 0, 0, 0.75, 10.770906, 35.625719)" fill="none" stroke-linejoin="miter" d="M 471.263822 202.499054 L 353.451315 404.993859 L 117.815882 404.993859 L -0.00183358 202.499054 L 117.815882 -0.000958801 L 353.451315 -0.000958801 Z M 471.263822 202.499054 " stroke="#000000" stroke-width="8" stroke-opacity="1" stroke-miterlimit="4"/></g></g><g clip-path="url(#4f6e777da6)"><path fill="#fbfbff" d="M 187.5 102.328125 C 130.722656 102.328125 82.234375 137.644531 62.589844 187.496094 C 82.234375 237.347656 130.722656 272.660156 187.5 272.660156 C 244.277344 272.660156 292.765625 237.347656 312.410156 187.496094 C 292.765625 137.644531 244.332031 102.328125 187.5 102.328125 Z M 187.5 244.273438 C 156.15625 244.273438 130.722656 218.835938 130.722656 187.496094 C 130.722656 156.152344 156.15625 130.71875 187.5 130.71875 C 218.839844 130.71875 244.277344 156.152344 244.277344 187.496094 C 244.277344 218.835938 218.839844 244.273438 187.5 244.273438 Z M 187.5 153.429688 C 168.707031 153.429688 153.433594 168.703125 153.433594 187.496094 C 153.433594 206.289062 168.707031 221.5625 187.5 221.5625 C 206.292969 221.5625 221.566406 206.289062 221.566406 187.496094 C 221.566406 168.703125 206.292969 153.429688 187.5 153.429688 Z M 187.5 153.429688 " fill-opacity="1" fill-rule="nonzero"/></g></svg>